<?xml version="1.0" encoding="UTF-8"?>
<svg width="32px" height="32px" viewBox="0 0 32 32" version="1.1" xmlns="http://www.w3.org/2000/svg" xmlns:xlink="http://www.w3.org/1999/xlink">
    <title>Group Copy</title>
    <g id="Page-4" stroke="none" stroke-width="1" fill="none" fill-rule="evenodd">
        <g id="Group-Copy">
            <circle id="Oval" fill="#00737A" cx="16" cy="16" r="16"></circle>
            <path d="M16,7.27272727 C16.8036364,7.27272727 17.4545455,7.92363636 17.4545455,8.72727273 L17.4545455,14.5454545 L23.2727273,14.5454545 C24.0763636,14.5454545 24.7272727,15.1963636 24.7272727,16 C24.7272727,16.8036364 24.0763636,17.4545455 23.2727273,17.4545455 L17.4545455,17.4545455 L17.4545455,23.2727273 C17.4545455,24.0763636 16.8036364,24.7272727 16,24.7272727 C15.1963636,24.7272727 14.5454545,24.0763636 14.5454545,23.2727273 L14.5454545,17.4545455 L8.72727273,17.4545455 C7.92363636,17.4545455 7.27272727,16.8036364 7.27272727,16 C7.27272727,15.1963636 7.92363636,14.5454545 8.72727273,14.5454545 L14.5454545,14.5454545 L14.5454545,8.72727273 C14.5454545,7.92363636 15.1963636,7.27272727 16,7.27272727 Z" id="Path" fill="#73C0C7" fill-rule="nonzero"></path>
        </g>
    </g>
</svg>