<svg id="Layer_1" data-name="Layer 1" xmlns="http://www.w3.org/2000/svg" viewBox="0 0 278.32 271.9"><defs><style>.cls-1{fill:none;}.cls-2{fill:#f7c056;}</style></defs><g id="Layer_2" data-name="Layer 2"><g id="Layer_1-2" data-name="Layer 1-2"><rect class="cls-1" x="10.64" y="4.22" width="267.68" height="267.68"/></g></g><path class="cls-2" d="M493,207.45H361.71A17.62,17.62,0,0,0,344.14,225h0a17.63,17.63,0,0,0,17.57,17.57H493A17.63,17.63,0,0,0,510.55,225h0A17.62,17.62,0,0,0,493,207.45Z" transform="translate(-293.09 -207.15)"/><path class="cls-2" d="M310.92,207.15A17.84,17.84,0,1,0,328.75,225a17.83,17.83,0,0,0-17.83-17.84Z" transform="translate(-293.09 -207.15)"/><path class="cls-2" d="M493,271H361.71a17.63,17.63,0,0,0-17.57,17.57h0a17.62,17.62,0,0,0,17.57,17.57H493a17.62,17.62,0,0,0,17.58-17.57h0A17.63,17.63,0,0,0,493,271Z" transform="translate(-293.09 -207.15)"/><path class="cls-2" d="M310.92,270.66a17.84,17.84,0,1,0,17.83,17.84,17.83,17.83,0,0,0-17.83-17.84Z" transform="translate(-293.09 -207.15)"/><path class="cls-2" d="M493,334.47H361.71A17.63,17.63,0,0,0,344.14,352h0a17.63,17.63,0,0,0,17.57,17.58H493A17.63,17.63,0,0,0,510.55,352h0A17.63,17.63,0,0,0,493,334.47Z" transform="translate(-293.09 -207.15)"/><path class="cls-2" d="M310.92,334.18A17.84,17.84,0,1,0,328.75,352a17.83,17.83,0,0,0-17.83-17.83Z" transform="translate(-293.09 -207.15)"/></svg>