<?xml version="1.0" encoding="UTF-8"?>
<svg width="42px" height="42px" viewBox="0 0 42 42" version="1.1" xmlns="http://www.w3.org/2000/svg" xmlns:xlink="http://www.w3.org/1999/xlink">
    <title>Group 4</title>
    <g id="Page-4" stroke="none" stroke-width="1" fill="none" fill-rule="evenodd">
        <g id="List-Copy-2" transform="translate(-75.000000, -810.000000)">
            <g id="Group-4" transform="translate(75.000000, 810.000000)">
                <polygon id="Path" points="0 0 42 0 42 42 0 42"></polygon>
                <path d="M21,14 C17.1325,14 14,17.1325 14,21 C14,24.8675 17.1325,28 21,28 C24.8675,28 28,24.8675 28,21 C28,17.1325 24.8675,14 21,14 Z M36.645,19.25 C35.84,11.9525 30.0475,6.16 22.75,5.355 L22.75,1.75 L19.25,1.75 L19.25,5.355 C11.9525,6.16 6.16,11.9525 5.355,19.25 L1.75,19.25 L1.75,22.75 L5.355,22.75 C6.16,30.0475 11.9525,35.84 19.25,36.645 L19.25,40.25 L22.75,40.25 L22.75,36.645 C30.0475,35.84 35.84,30.0475 36.645,22.75 L40.25,22.75 L40.25,19.25 L36.645,19.25 Z M21,33.25 C14.23625,33.25 8.75,27.76375 8.75,21 C8.75,14.23625 14.23625,8.75 21,8.75 C27.76375,8.75 33.25,14.23625 33.25,21 C33.25,27.76375 27.76375,33.25 21,33.25 Z" id="Shape" fill="#FFFFFF" fill-rule="nonzero"></path>
            </g>
        </g>
    </g>
</svg>