<?xml version="1.0" encoding="UTF-8"?>
<svg width="42px" height="42px" viewBox="0 0 42 42" version="1.1" xmlns="http://www.w3.org/2000/svg" xmlns:xlink="http://www.w3.org/1999/xlink">
    <title>Group 5</title>
    <g id="Page-4" stroke="none" stroke-width="1" fill="none" fill-rule="evenodd">
        <g id="Map-Copy-2" transform="translate(-186.000000, -810.000000)">
            <g id="Group-5" transform="translate(186.000000, 810.000000)">
                <polygon id="Path-Copy" points="0 0 42 0 42 42 0 42"></polygon>
                <path d="M8.53635364,30.504585 L17.1882476,20.7974643 C18.6739411,18.4008452 22.3260589,18.4008452 23.8117524,20.7974643 L32.4636464,30.504585 C33.9704083,32.9350929 32.1236441,36 29.1515307,36 L11.8484693,36 C8.87635586,36 7.02959169,32.9357707 8.53635364,30.504585 Z M4.97334617,16.1745429 C2.91734354,16.9307061 2.38112173,19.9282146 3.77704698,22.8694956 C5.17297222,25.8107765 7.9706512,27.5816203 10.0266538,26.8254571 C12.0826565,26.0692939 12.6188783,23.0717854 11.222953,20.1305044 C9.82702778,17.1892235 7.0293488,15.4183797 4.97334617,16.1745429 Z M18.6134567,10.9587619 C19.5598221,14.2217895 18.7086372,17.3327763 16.7132476,17.9079167 C14.717858,18.4830572 12.3329086,16.3042656 11.3865433,13.0412381 C10.4401779,9.77821053 11.2913628,6.66722369 13.2867524,6.09208326 C15.2828218,5.51694284 17.6677713,7.69573437 18.6134567,10.9587619 Z M29.7767823,20.1305044 C28.3814864,23.0717854 28.9170177,26.0686476 30.9731665,26.8254571 C33.0293153,27.5816203 35.8279218,25.8107765 37.2232177,22.8694956 C38.6185136,19.9282146 38.0829823,16.9313524 36.0268335,16.1745429 C33.9706847,15.4183797 31.1728068,17.1892235 29.7767823,20.1305044 Z M27.7132476,6.09208326 C29.7086372,6.66722369 30.5598221,9.77821053 29.6134567,13.0412381 C28.6670914,16.3042656 26.2828218,18.4830572 24.2867524,17.9079167 C22.2913628,17.3327763 21.4401779,14.2217895 22.3865433,10.9587619 C23.3329086,7.69573437 25.717858,5.51694284 27.7132476,6.09208326 Z" id="icon:1" fill="#FFFFFF" fill-rule="nonzero"></path>
            </g>
        </g>
    </g>
</svg>