<?xml version="1.0" encoding="UTF-8"?>
<svg width="16px" height="16px" viewBox="0 0 16 16" version="1.1" xmlns="http://www.w3.org/2000/svg" xmlns:xlink="http://www.w3.org/1999/xlink">
    <title>search</title>
    <g id="Page-4" stroke="none" stroke-width="1" fill="none" fill-rule="evenodd" opacity="0.300000012">
        <g id="List-Copy-2" transform="translate(-40.000000, -114.000000)" fill="#000000" fill-rule="nonzero">
            <g id="search" transform="translate(40.000000, 114.000000)">
                <path d="M11.4928134,1.97180728 C13.9758437,4.45490885 14.1141639,8.3953101 11.9065497,11.0406059 L15.8205204,14.9553009 C16.0598265,15.1946139 16.0598265,15.5820438 15.8205204,15.8207447 C15.5812143,16.0594456 15.1937955,16.0600577 14.9551014,15.8207447 L11.0411307,11.9060497 C8.39591083,14.1137272 4.4556226,13.9760151 1.97198022,11.4929135 C-0.657326741,8.86353113 -0.657326741,4.60057761 1.97198022,1.97180728 C4.60128719,-0.656963056 8.86411843,-0.65757511 11.4928134,1.97180728 Z M10.9670744,10.2559531 C12.7835974,8.07949043 12.6465014,4.85641603 10.6273944,2.83725111 C8.47608756,0.685882604 4.98870602,0.685882604 2.83739923,2.83725111 C0.686092437,4.98861961 0.686092437,8.47610118 2.83739923,10.6274697 C4.85650623,12.6466346 8.08010022,12.7831226 10.2565005,10.9665474 L10.6439193,10.6433831 L10.9670744,10.2559531 Z" id="Shape"></path>
            </g>
        </g>
    </g>
</svg>