<svg xmlns="http://www.w3.org/2000/svg" viewBox="0 0 74.27 74.27"><defs><style>.cls-1{isolation:isolate;}.cls-2{fill:#f9c056;}</style></defs><g id="Triangle_1" data-name="Triangle 1" class="cls-1"><path class="cls-2" d="M177.06,57.46l-5.82-.74a29.56,29.56,0,0,0-1.76-4.26l3.6-4.62a4.61,4.61,0,0,0-.38-6.13l-4.88-4.87a4.6,4.6,0,0,0-6.14-.39L157.06,40a29,29,0,0,0-4.25-1.76l-.74-5.81a4.64,4.64,0,0,0-4.6-4.09h-6.93a4.64,4.64,0,0,0-4.6,4.08l-.74,5.82A29.1,29.1,0,0,0,130.94,40l-4.62-3.59a4.6,4.6,0,0,0-6.13.37l-4.87,4.87a4.61,4.61,0,0,0-.39,6.15l3.59,4.62a29.56,29.56,0,0,0-1.76,4.26l-5.81.74a4.63,4.63,0,0,0-4.09,4.59V69a4.64,4.64,0,0,0,4.08,4.6l5.82.74a29.92,29.92,0,0,0,1.76,4.25l-3.59,4.62a4.6,4.6,0,0,0,.37,6.13l4.88,4.87a4.61,4.61,0,0,0,6.14.39L130.94,91a29.56,29.56,0,0,0,4.26,1.76l.74,5.81a4.64,4.64,0,0,0,4.6,4.09h6.93a4.64,4.64,0,0,0,4.6-4.08l.74-5.82A29.44,29.44,0,0,0,157.06,91l4.62,3.6a4.61,4.61,0,0,0,6.13-.38l4.87-4.88a4.61,4.61,0,0,0,.4-6.14l-3.6-4.62a27.75,27.75,0,0,0,1.76-4.25l5.81-.74a4.64,4.64,0,0,0,4.09-4.6V62.05a4.63,4.63,0,0,0-4.08-4.59ZM144,81a15.47,15.47,0,1,1,15.48-15.47A15.49,15.49,0,0,1,144,81Z" transform="translate(-106.86 -28.38)"/></g></svg>