<?xml version="1.0" encoding="UTF-8"?>
<svg width="32px" height="30px" viewBox="0 0 32 30" version="1.1" xmlns="http://www.w3.org/2000/svg" xmlns:xlink="http://www.w3.org/1999/xlink">
    <title>settings</title>
    <g id="Page-4" stroke="none" stroke-width="1" fill="none" fill-rule="evenodd">
        <g id="settings" fill="#00737A" fill-rule="nonzero">
            <path d="M21.1797333,0.060937205 C23.0634667,0.696257061 24.8074667,1.67548531 26.3242667,2.94076819 C26.7050667,3.25789244 26.8330667,3.78286163 26.6410667,4.23712068 C26.0928,5.52918771 26.1749333,6.99910144 26.8981333,8.23438608 C27.6672,9.54788042 29.0314667,10.372832 30.5365333,10.4788972 C31.0346667,10.5142523 31.4517333,10.8635175 31.5669333,11.342418 C31.8538667,12.5294912 32,13.7551335 32,14.9989891 C32,16.2428446 31.8538667,17.4674156 31.568,18.6566316 C31.4528,19.1366034 31.0346667,19.4858686 30.5365333,19.5212237 C29.0304,19.6262175 27.6672,20.4511691 26.8981333,21.7646634 C26.1749333,22.9999481 26.0928,24.4709332 26.6410667,25.7630002 C26.8330667,26.2161879 26.7050667,26.7411571 26.3253333,27.0582813 C24.8096,28.3235642 23.0666667,29.3027925 21.1818667,29.9391837 C20.6837333,30.1073881 20.1333333,29.9177564 19.8496,29.4806392 C19.0144,28.1950003 17.5776,27.4032611 16.0010667,27.4032611 C14.4245333,27.4032611 12.9877333,28.1950003 12.1504,29.4806392 C11.8666667,29.916685 11.3173333,30.1063167 10.8192,29.9381123 C8.93653333,29.3038638 7.19253333,28.3257069 5.67573333,27.0593527 C5.29493333,26.7422284 5.16693333,26.2172593 5.35893333,25.7630002 C5.9072,24.4709332 5.82506667,23.0010194 5.10186667,21.7657348 C4.3328,20.4522405 2.96853333,19.6272889 1.46346667,19.5212237 C0.965333333,19.4858686 0.548266667,19.1366034 0.433066667,18.6577029 C0.146133333,17.4706297 0,16.2449874 0,15.0011318 C0,13.7572762 0.146133333,12.5327052 0.432,11.3434893 C0.5472,10.8635175 0.965333333,10.5142523 1.46346667,10.4788972 C2.9696,10.3739034 4.3328,9.54895179 5.10186667,8.23545745 C5.82506667,7.0001728 5.9072,5.52918771 5.36,4.23712068 C5.168,3.78393299 5.296,3.2589638 5.67573333,2.94183956 C7.19146667,1.67655667 8.9344,0.697328427 10.8192,0.060937205 C11.3173333,-0.107267209 11.8666667,0.0823645189 12.1514667,0.519481722 C12.9866667,1.80512055 14.4234667,2.59793117 16,2.59793117 C17.5552,2.59793117 18.9749333,1.82761923 19.7994667,0.597691418 L19.84,0.533409476 C20.1205333,0.0866499817 20.6773333,-0.10940994 21.1808,0.060937205 L21.1797333,0.060937205 Z M15.9989333,10.7135263 C13.6426667,10.7135263 11.7322667,12.6323423 11.7322667,14.9989891 C11.7322667,17.3656359 13.6426667,19.2844518 15.9989333,19.2844518 C18.3552,19.2844518 20.2656,17.3656359 20.2656,14.9989891 C20.2656,12.6323423 18.3552,10.7135263 15.9989333,10.7135263 Z" id="Shape"></path>
        </g>
    </g>
</svg>